<svg id="visual" viewBox="0 0 960 200" width="960" height="200" xmlns="http://www.w3.org/2000/svg" xmlns:xlink="http://www.w3.org/1999/xlink" version="1.1"><rect x="0" y="0" width="960" height="200" fill="#f4f4f4"></rect><path d="M0 150L26.7 152.7C53.3 155.3 106.7 160.7 160 153C213.3 145.3 266.7 124.7 320 115.3C373.3 106 426.7 108 480 118C533.3 128 586.7 146 640 149.3C693.3 152.7 746.7 141.3 800 132.2C853.3 123 906.7 116 933.3 112.5L960 109L960 0L933.3 0C906.7 0 853.3 0 800 0C746.7 0 693.3 0 640 0C586.7 0 533.3 0 480 0C426.7 0 373.3 0 320 0C266.7 0 213.3 0 160 0C106.7 0 53.3 0 26.7 0L0 0Z" fill="#f4f4f4"></path><path d="M0 100L26.7 109C53.3 118 106.7 136 160 140.2C213.3 144.3 266.7 134.7 320 133.3C373.3 132 426.7 139 480 136.3C533.3 133.7 586.7 121.3 640 111.7C693.3 102 746.7 95 800 95.2C853.3 95.3 906.7 102.7 933.3 106.3L960 110L960 0L933.3 0C906.7 0 853.3 0 800 0C746.7 0 693.3 0 640 0C586.7 0 533.3 0 480 0C426.7 0 373.3 0 320 0C266.7 0 213.3 0 160 0C106.7 0 53.3 0 26.7 0L0 0Z" fill="#f3f0ed"></path><path d="M0 113L26.7 113.8C53.3 114.7 106.7 116.3 160 109.7C213.3 103 266.7 88 320 80.5C373.3 73 426.7 73 480 78.8C533.3 84.7 586.7 96.3 640 100C693.3 103.7 746.7 99.3 800 94.5C853.3 89.7 906.7 84.3 933.3 81.7L960 79L960 0L933.3 0C906.7 0 853.3 0 800 0C746.7 0 693.3 0 640 0C586.7 0 533.3 0 480 0C426.7 0 373.3 0 320 0C266.7 0 213.3 0 160 0C106.7 0 53.3 0 26.7 0L0 0Z" fill="#f2ece6"></path><path d="M0 93L26.7 88.5C53.3 84 106.7 75 160 79.3C213.3 83.7 266.7 101.3 320 107C373.3 112.7 426.7 106.3 480 102.3C533.3 98.3 586.7 96.7 640 100C693.3 103.3 746.7 111.7 800 107.2C853.3 102.7 906.7 85.3 933.3 76.7L960 68L960 0L933.3 0C906.7 0 853.3 0 800 0C746.7 0 693.3 0 640 0C586.7 0 533.3 0 480 0C426.7 0 373.3 0 320 0C266.7 0 213.3 0 160 0C106.7 0 53.3 0 26.7 0L0 0Z" fill="#f2e7df"></path><path d="M0 61L26.7 67.2C53.3 73.3 106.7 85.7 160 89.5C213.3 93.3 266.7 88.7 320 85.3C373.3 82 426.7 80 480 81.5C533.3 83 586.7 88 640 86.3C693.3 84.7 746.7 76.3 800 77.8C853.3 79.3 906.7 90.7 933.3 96.3L960 102L960 0L933.3 0C906.7 0 853.3 0 800 0C746.7 0 693.3 0 640 0C586.7 0 533.3 0 480 0C426.7 0 373.3 0 320 0C266.7 0 213.3 0 160 0C106.7 0 53.3 0 26.7 0L0 0Z" fill="#f1e3d8"></path><path d="M0 69L26.7 71.7C53.3 74.3 106.7 79.7 160 83.5C213.3 87.3 266.7 89.7 320 84.5C373.3 79.3 426.7 66.7 480 62.7C533.3 58.7 586.7 63.3 640 64.2C693.3 65 746.7 62 800 65.2C853.3 68.3 906.7 77.7 933.3 82.3L960 87L960 0L933.3 0C906.7 0 853.3 0 800 0C746.7 0 693.3 0 640 0C586.7 0 533.3 0 480 0C426.7 0 373.3 0 320 0C266.7 0 213.3 0 160 0C106.7 0 53.3 0 26.7 0L0 0Z" fill="#efdfd0"></path><path d="M0 63L26.7 62.8C53.3 62.7 106.7 62.3 160 63.2C213.3 64 266.7 66 320 67.5C373.3 69 426.7 70 480 68.7C533.3 67.3 586.7 63.7 640 62C693.3 60.3 746.7 60.7 800 59.8C853.3 59 906.7 57 933.3 56L960 55L960 0L933.3 0C906.7 0 853.3 0 800 0C746.7 0 693.3 0 640 0C586.7 0 533.3 0 480 0C426.7 0 373.3 0 320 0C266.7 0 213.3 0 160 0C106.7 0 53.3 0 26.7 0L0 0Z" fill="#eedbc9"></path><path d="M0 37L26.7 38.8C53.3 40.7 106.7 44.3 160 43.5C213.3 42.7 266.7 37.3 320 34.2C373.3 31 426.7 30 480 31.8C533.3 33.7 586.7 38.3 640 42C693.3 45.7 746.7 48.3 800 46.3C853.3 44.3 906.7 37.7 933.3 34.3L960 31L960 0L933.3 0C906.7 0 853.3 0 800 0C746.7 0 693.3 0 640 0C586.7 0 533.3 0 480 0C426.7 0 373.3 0 320 0C266.7 0 213.3 0 160 0C106.7 0 53.3 0 26.7 0L0 0Z" fill="#edd6c2"></path><path d="M0 26L26.7 28.3C53.3 30.7 106.7 35.3 160 35.8C213.3 36.3 266.7 32.7 320 29C373.3 25.3 426.7 21.7 480 22.8C533.3 24 586.7 30 640 31.8C693.3 33.7 746.7 31.3 800 30.3C853.3 29.3 906.7 29.7 933.3 29.8L960 30L960 0L933.3 0C906.7 0 853.3 0 800 0C746.7 0 693.3 0 640 0C586.7 0 533.3 0 480 0C426.7 0 373.3 0 320 0C266.7 0 213.3 0 160 0C106.7 0 53.3 0 26.7 0L0 0Z" fill="#ebd2bb"></path><path d="M0 7L26.7 7.3C53.3 7.7 106.7 8.3 160 10.8C213.3 13.3 266.7 17.7 320 17.5C373.3 17.3 426.7 12.7 480 12.7C533.3 12.7 586.7 17.3 640 19.3C693.3 21.3 746.7 20.7 800 21C853.3 21.3 906.7 22.7 933.3 23.3L960 24L960 0L933.3 0C906.7 0 853.3 0 800 0C746.7 0 693.3 0 640 0C586.7 0 533.3 0 480 0C426.7 0 373.3 0 320 0C266.7 0 213.3 0 160 0C106.7 0 53.3 0 26.7 0L0 0Z" fill="#eaceb4"></path></svg>