<?xml version="1.0" encoding="UTF-8" standalone="no"?>
<svg
   xmlns:dc="http://purl.org/dc/elements/1.1/"
   xmlns:cc="http://creativecommons.org/ns#"
   xmlns:rdf="http://www.w3.org/1999/02/22-rdf-syntax-ns#"
   xmlns:svg="http://www.w3.org/2000/svg"
   xmlns="http://www.w3.org/2000/svg"
   xmlns:sodipodi="http://sodipodi.sourceforge.net/DTD/sodipodi-0.dtd"
   xmlns:inkscape="http://www.inkscape.org/namespaces/inkscape"
   sodipodi:docname="logo.svg"
   inkscape:version="1.0 (4035a4fb49, 2020-05-01)"
   id="svg8"
   version="1.1"
   viewBox="0 0 135 34"
   height="34mm"
   width="135mm">
  <defs
     id="defs2">
    <inkscape:path-effect
       only_selected="false"
       apply_with_weight="true"
       apply_no_weight="true"
       helper_size="0"
       steps="2"
       weight="33.333333"
       lpeversion="1"
       is_visible="true"
       id="path-effect927"
       effect="bspline" />
    <inkscape:path-effect
       only_selected="false"
       apply_with_weight="true"
       apply_no_weight="true"
       helper_size="0"
       steps="2"
       weight="33.333333"
       lpeversion="1"
       is_visible="true"
       id="path-effect916"
       effect="bspline" />
    <inkscape:path-effect
       only_selected="false"
       apply_with_weight="true"
       apply_no_weight="true"
       helper_size="0"
       steps="2"
       weight="33.333333"
       lpeversion="1"
       is_visible="true"
       id="path-effect891"
       effect="bspline" />
    <inkscape:path-effect
       only_selected="false"
       apply_with_weight="true"
       apply_no_weight="true"
       helper_size="0"
       steps="2"
       weight="33.333333"
       lpeversion="1"
       is_visible="true"
       id="path-effect881"
       effect="bspline" />
    <inkscape:path-effect
       only_selected="false"
       apply_with_weight="true"
       apply_no_weight="true"
       helper_size="0"
       steps="2"
       weight="33.333333"
       lpeversion="1"
       is_visible="true"
       id="path-effect877"
       effect="bspline" />
    <inkscape:path-effect
       only_selected="false"
       apply_with_weight="true"
       apply_no_weight="true"
       helper_size="0"
       steps="2"
       weight="33.333333"
       lpeversion="1"
       is_visible="true"
       id="path-effect873"
       effect="bspline" />
    <inkscape:path-effect
       only_selected="false"
       apply_with_weight="true"
       apply_no_weight="true"
       helper_size="0"
       steps="2"
       weight="33.333333"
       lpeversion="1"
       is_visible="true"
       id="path-effect869"
       effect="bspline" />
  </defs>
  <sodipodi:namedview
     inkscape:window-maximized="1"
     inkscape:window-y="-8"
     inkscape:window-x="-8"
     inkscape:window-height="1417"
     inkscape:window-width="2560"
     showgrid="false"
     inkscape:document-rotation="0"
     inkscape:current-layer="layer4"
     inkscape:document-units="mm"
     inkscape:cy="276.69985"
     inkscape:cx="441.40294"
     inkscape:zoom="0.98994949"
     inkscape:pageshadow="2"
     inkscape:pageopacity="0.0"
     borderopacity="1.0"
     bordercolor="#666666"
     pagecolor="#ffffff"
     id="base" />
  <metadata
     id="metadata5">
    <rdf:RDF>
      <cc:Work
         rdf:about="">
        <dc:format>image/svg+xml</dc:format>
        <dc:type
           rdf:resource="http://purl.org/dc/dcmitype/StillImage" />
        <dc:title></dc:title>
      </cc:Work>
    </rdf:RDF>
  </metadata>
  <g
     style="display:inline"
     inkscape:label="Vrstva 3"
     id="layer6"
     inkscape:groupmode="layer" />
  <g
     style="display:inline"
     id="layer1"
     inkscape:groupmode="layer"
     inkscape:label="Vrstva 1">
    <text
       id="text903"
       y="26.954239"
       x="30.412567"
       style="font-style:normal;font-weight:normal;font-size:27.0914px;line-height:1.25;font-family:sans-serif;fill:#000000;fill-opacity:1;stroke:none;stroke-width:0.67729"
       xml:space="preserve"><tspan
         style="font-style:normal;font-variant:normal;font-weight:normal;font-stretch:normal;font-family:Somelove;-inkscape-font-specification:Somelove;stroke-width:0.67729"
         y="26.954239"
         x="30.412567"
         id="tspan901"
         sodipodi:role="line">Sweet Deer</tspan></text>
    <text
       id="text911"
       y="166.6875"
       x="135.40997"
       style="font-style:normal;font-weight:normal;font-size:10.5833px;line-height:1.25;font-family:sans-serif;fill:#000000;fill-opacity:1;stroke:none;stroke-width:0.264583"
       xml:space="preserve"><tspan
         style="font-style:normal;font-variant:normal;font-weight:normal;font-stretch:normal;font-family:'Agency FB';-inkscape-font-specification:'Agency FB';stroke-width:0.264583"
         y="166.6875"
         x="135.40997"
         id="tspan909"
         sodipodi:role="line" /></text>
  </g>
  <g
     style="display:inline;opacity:1"
     inkscape:label="Vrstva 2"
     id="layer4"
     inkscape:groupmode="layer">
    <g
       transform="translate(-81.896186,-87.999999)"
       id="g942">
      <path
         style="display:inline;opacity:1;fill:#956748;fill-opacity:1;stroke:#956748;stroke-width:0.264583px;stroke-linecap:butt;stroke-linejoin:miter;stroke-opacity:1"
         d="m 96.104541,98.187235 c 0.263953,0.07879 0.791545,0.236283 1.216766,0.42533 0.42522,0.189048 0.748069,0.40953 0.976373,0.63007 0.228304,0.22054 0.362167,0.44102 0.523636,0.645737 0.161469,0.204718 0.350452,0.393698 0.574889,0.598428 0.224437,0.20472 0.484289,0.4252 0.759905,0.6378 0.27562,0.2126 0.56697,0.41734 0.78352,0.57089 0.21655,0.15356 0.35829,0.25593 0.44872,0.40559 0.0904,0.14965 0.12981,0.34652 0.0943,0.52751 -0.0355,0.181 -0.14573,0.34636 -0.27958,0.50776 -0.13385,0.16139 -0.29133,0.31888 -0.53139,0.42123 -0.24006,0.10235 -0.56292,0.1496 -0.976323,0.19685 -0.413403,0.0473 -0.917365,0.0945 -1.500065,0.10632 -0.5827,0.0118 -1.244145,-0.0118 -1.732373,-0.0276 -0.488228,-0.0157 -0.803195,-0.0236 -1.094538,-0.0708 -0.291342,-0.0472 -0.559057,-0.13381 -0.819033,-0.10632 -0.259977,0.0275 -0.511956,0.16922 -0.807277,0.37003 -0.295321,0.20082 -0.63392,0.46067 -0.933173,0.72449 -0.299254,0.26381 -0.559107,0.53154 -0.724488,0.87813 -0.165381,0.34658 -0.236252,0.7718 -0.228315,1.14196 0.0079,0.37015 0.09455,0.68512 0.378143,0.87791 0.28359,0.19279 0.763931,0.26366 1.31121,0.32665 0.54728,0.063 1.161477,0.11811 1.799333,0.25201 0.637857,0.13391 1.299302,0.34652 1.980453,0.55913 0.681152,0.21261 1.381971,0.42522 2.098557,0.67722 0.716589,0.252 1.448899,0.54335 2.141859,0.85047 0.69296,0.30713 1.34653,0.62998 1.85048,0.9647 0.50395,0.33473 0.85829,0.6812 1.14568,1.02376 0.28739,0.34257 0.50787,0.68116 0.59043,0.98823 0.0826,0.30706 0.0274,0.58265 -0.0867,0.88971 -0.11419,0.30706 -0.28743,0.64566 -0.57088,1.00784 -0.28346,0.36217 -0.67718,0.74802 -1.1772,1.18111 -0.50002,0.43309 -1.10635,0.91342 -1.68119,1.34652 -0.57483,0.4331 -1.11815,0.81894 -1.58663,1.07092 -0.468481,0.25198 -0.862196,0.37009 -1.338563,0.42918 -0.476368,0.0591 -1.035446,0.0591 -1.803204,-0.004 -0.767759,-0.063 -1.744179,-0.18897 -2.672144,-0.40506 -0.927965,-0.21609 -1.812341,-0.52404 -2.591925,-0.87442 -0.779584,-0.35038 -1.456777,-0.7441 -2.051347,-1.2559 -0.59457,-0.5118 -1.106404,-1.14174 -1.567113,-1.92525 -0.460709,-0.78351 -0.870175,-1.72055 -1.185186,-2.61432 -0.315012,-0.89377 -0.535493,-1.7442 -0.598543,-2.54351 -0.06305,-0.79932 0.03144,-1.54738 0.200735,-2.26794 0.169292,-0.72056 0.413396,-1.4135 0.708692,-2.11042 0.295297,-0.69693 0.641768,-1.39775 1.019758,-2.01987 0.37799,-0.62213 0.787457,-1.16545 1.370203,-1.76789 0.582746,-0.60243 1.338687,-1.26388 2.015943,-1.744246 0.677257,-0.480366 1.275707,-0.779592 1.299357,-0.964107 0.02365,-0.184515 -0.54318,-0.256367 -0.974373,-0.474399 -0.431193,-0.218033 -0.742163,-0.592792 -0.907637,-0.951088 -0.165474,-0.358296 -0.189097,-0.704768 -0.08664,-0.901792 0.102461,-0.197023 0.330819,-0.244269 0.637976,-0.240289 0.307157,0.004 0.692999,0.0591 1.070978,0.224557 0.37798,0.165456 0.748075,0.441058 1.15362,0.728473 0.405545,0.287415 0.84651,0.586641 1.200862,0.755861 0.354352,0.16922 0.622079,0.208592 0.755797,0.228256 0.133718,0.01966 0.133717,0.01968 0.39767,0.09847 z"
         id="path925"
         inkscape:path-effect="#path-effect927"
         inkscape:original-d="m 95.840588,98.108443 c 0.527855,0.157755 1.055447,0.315246 1.582775,0.472472 0.323125,0.220755 0.645975,0.441235 0.968563,0.661458 0.134136,0.220755 0.267999,0.441235 0.4016,0.661459 0.189257,0.189258 0.378241,0.378238 0.566965,0.566958 0.260128,0.22076 0.519981,0.44124 0.779579,0.66146 0.29162,0.20501 0.58297,0.40974 0.87406,0.61421 0.14201,0.10264 0.28375,0.20501 0.42522,0.30711 0.0396,0.19713 0.079,0.39399 0.11812,0.59059 -0.10998,0.16563 -0.22022,0.33099 -0.33073,0.49609 -0.15723,0.15776 -0.31471,0.31525 -0.47247,0.47247 -0.32259,0.0475 -0.64544,0.0948 -0.968556,0.14174 -0.503714,0.0475 -1.007671,0.0948 -1.511903,0.14174 -0.661207,-0.0234 -1.322653,-0.047 -1.984375,-0.0709 -0.314722,-0.008 -0.629698,-0.0155 -0.944941,-0.0236 -0.267476,-0.0864 -0.535202,-0.17298 -0.803201,-0.25986 -0.251725,0.14201 -0.503703,0.28375 -0.755952,0.42522 -0.338346,0.26013 -0.676942,0.51999 -1.015812,0.77958 -0.259599,0.268 -0.519451,0.53573 -0.779574,0.8032 -0.07061,0.42549 -0.141478,0.85071 -0.212613,1.27567 0.08689,0.31525 0.173505,0.63022 0.25986,0.94494 0.480618,0.0711 0.960954,0.142 1.441035,0.21261 0.614487,0.0554 1.228685,0.11051 1.842632,0.16536 0.661736,0.21288 1.323181,0.42549 1.984375,0.63784 0.701109,0.21288 1.401927,0.42549 2.102493,0.63783 0.732602,0.29163 1.464912,0.58298 2.196982,0.87407 0.65386,0.32313 1.30743,0.64598 1.96075,0.96857 0.35463,0.34675 0.70897,0.69322 1.06306,1.03943 0.22075,0.33888 0.44124,0.67747 0.66146,1.01581 -0.0549,0.27588 -0.10998,0.55148 -0.16537,0.82683 -0.17297,0.33887 -0.34621,0.67747 -0.51971,1.01581 -0.39347,0.38612 -0.78719,0.77196 -1.18118,1.15755 -0.60608,0.48062 -1.21241,0.96095 -1.81901,1.44103 -0.54309,0.38613 -1.08641,0.77197 -1.630017,1.15756 -0.39347,0.11838 -0.787186,0.23649 -1.181177,0.35435 -0.558837,2.6e-4 -1.117915,2.6e-4 -1.677268,0 -0.976193,-0.12573 -1.952614,-0.25172 -2.929315,-0.37798 -0.881698,-0.29897 -1.763626,-0.61395 -2.645834,-0.92131 -0.676957,-0.39347 -1.35415,-0.78719 -2.031621,-1.18118 -0.511591,-0.62971 -1.023422,-1.25966 -1.535531,-1.88988 -0.409218,-0.93682 -0.818681,-1.87387 -1.228421,-2.8112 -0.220225,-0.8502 -0.440708,-1.70063 -0.661458,-2.55134 0.09476,-0.74783 0.189251,-1.49589 0.283483,-2.24423 0.244377,-0.69271 0.488481,-1.38565 0.732327,-2.07887 0.346749,-0.70058 0.693221,-1.4014 1.039434,-2.1025 0.409747,-0.54308 0.819213,-1.08641 1.228423,-1.63002 0.756232,-0.6612 1.512171,-1.32265 2.267858,-1.984371 0.598738,-0.298974 1.197189,-0.598199 1.795385,-0.897695 -0.55096,-0.07061 -1.117914,-0.141475 -1.677267,-0.212611 -0.306848,-0.361968 -0.613948,-0.739939 -0.921317,-1.110305 -0.02336,-0.346221 -0.04698,-0.692693 -0.07087,-1.039434 0.228629,-0.04698 0.456986,-0.09423 0.68508,-0.14174 0.386125,0.05539 0.771967,0.110506 1.157552,0.165364 0.370375,0.275876 0.740469,0.551479 1.110306,0.826823 0.441246,0.299501 0.882211,0.598726 1.322917,0.897692 0.268004,0.03964 0.535731,0.07901 0.8032,0.118118 z" />
      <g
         id="g921"
         transform="matrix(0.51469101,0,0,0.51469101,46.189246,51.621173)">
        <path
           sodipodi:nodetypes="sccccccccccccccccccccccccccccccccccccccccccccccccccccss"
           inkscape:original-d="m 98.025762,88.068463 c -0.48402,-0.047 -0.96828,-0.0942 -1.45284,-0.14174 0.21682,-0.22023 0.43336,-0.44071 0.64964,-0.66146 0.29557,-0.38166 0.59085,-0.76356 0.88588,-1.14575 0.14989,-0.48795 0.2995,-0.97615 0.44885,-1.46465 -0.52734,-0.19266 -1.05491,-0.38558 -1.58278,-0.57878 -0.18478,0.70899 -0.36983,1.41768 -0.55515,2.12612 -0.1021,0.33494 -0.20447,0.66959 -0.3071,1.004 -0.15329,0.15776 -0.30684,0.31524 -0.46066,0.47247 -0.34228,-0.0903 -0.68482,-0.18085 -1.02762,-0.27167 -0.43678,-0.24779 -0.8738,-0.49583 -1.31111,-0.74414 -0.31078,-0.22416 -0.62181,-0.44858 -0.93313,-0.67327 -0.11391,-0.43678 -0.22809,-0.8738 -0.34254,-1.31111 -0.0352,-0.42103 -0.0706,-0.84228 -0.1063,-1.26385 -0.0627,-0.33048 -0.12573,-0.6612 -0.18899,-0.99219 -0.12967,-0.11392 -0.25959,-0.2281 -0.38979,-0.34255 -0.16116,0.0633 -0.32258,0.12628 -0.48428,0.18902 -0.0746,0.20107 -0.14935,0.40186 -0.22442,0.6024 0.0751,0.31132 0.14988,0.62236 0.22442,0.93313 0.0475,0.31918 0.0947,0.63769 0.14174,0.95675 -0.2394,-0.009 -0.47824,-0.0179 -0.71808,-0.0273 -0.35128,-0.12461 -0.7025,-0.24937 -1.05368,-0.37429 -0.36558,-0.17676 -0.73206,-0.35409 -1.0985,-0.53153 -0.26747,-0.16905 -0.53519,-0.33834 -0.8032,-0.50791 -0.43677,-0.24779 -0.87379,-0.49583 -1.3111,-0.74414 -0.44466,-0.33834 -0.88955,-0.67693 -1.33473,-1.01581 -0.38953,-0.36591 -0.77931,-0.73206 -1.16937,-1.09849 -0.1651,-0.51946 -0.33046,-1.03917 -0.49609,-1.55916 -0.0864,-0.38952 -0.17297,-0.7793 -0.25986,-1.16936 -0.17691,-0.41315 -0.35408,-0.82655 -0.53153,-1.24023 -0.29109,-0.12967 -0.58244,-0.25959 -0.87407,-0.38979 -0.2281,0.11051 -0.45645,0.22075 -0.68508,0.33073 -0.0706,0.37825 -0.14147,0.75621 -0.21261,1.13393 0.27194,0.67354 0.54361,1.34681 0.81501,2.01981 0.55937,0.74048 1.11845,1.48067 1.67727,2.22061 0.58299,0.54361 1.16569,1.08694 1.74814,1.63002 0.91372,0.47668 1.82715,0.95308 2.74033,1.42922 0.64365,0.35748 1.28702,0.71468 1.93015,1.07163 1.0263,0.83212 2.05227,1.66393 3.07804,2.49553 0.25225,0.27193 0.50423,0.5436 0.75595,0.815 0.48062,0.20895 0.96094,0.41761 1.44103,0.62603 0.70505,-0.12573 1.41004,-0.25176 2.1143,-0.37798 0.5909,-0.048 1.18173,-0.0963 1.77249,-0.14483 0.7326,-0.0381 1.46423,-0.0764 2.196248,-0.11503 0.59496,-0.25967 1.18931,-0.51945 1.78358,-0.77958 0.80742,-0.35015 1.61452,-0.70055 2.42141,-1.05124 0.19319,-0.23204 0.38611,-0.46433 0.57878,-0.6969 -0.043,-0.20841 -0.0863,-0.41707 -0.12993,-0.62601 -0.31866,-0.24386 -0.63757,-0.48796 -0.95676,-0.73234 -0.35409,0.26407 -0.70843,0.52785 -1.06305,0.79139 -0.35804,0.38219 -0.71631,0.76409 -1.07487,1.14574 -0.47615,0.16957 -0.95254,0.33887 -1.42923,0.50791 -0.35408,0.0672 -0.70843,0.13413 -1.063038,0.2008 -0.31472,0.004 -0.62943,0.008 -0.94494,0.0118 -0.27558,0.02 -0.55095,0.0396 -0.82683,0.0591 z"
           inkscape:path-effect="#path-effect916"
           id="path914"
           d="m 97.783763,88.044853 c -0.242,-0.02361 -0.726255,-0.07085 -0.860272,-0.204738 -0.134016,-0.133885 0.08252,-0.354365 0.338434,-0.655553 0.25591,-0.301189 0.55119,-0.683089 0.773636,-1.118094 0.222446,-0.435004 0.372058,-0.923204 0.183252,-1.263811 -0.188805,-0.340608 -0.716375,-0.533526 -1.072889,-0.275597 -0.356514,0.257929 -0.54156,0.96662 -0.685271,1.488303 -0.143711,0.521682 -0.246074,0.856334 -0.374012,1.102336 -0.127939,0.246001 -0.281486,0.403484 -0.529379,0.436991 -0.247894,0.03351 -0.590432,-0.05705 -0.980222,-0.226305 -0.38979,-0.169256 -0.826812,-0.417294 -1.200862,-0.653512 -0.374051,-0.236218 -0.685084,-0.460634 -0.89781,-0.791322 -0.212726,-0.330688 -0.326902,-0.767709 -0.401739,-1.196895 -0.07484,-0.429185 -0.110268,-0.850433 -0.159468,-1.226445 -0.0492,-0.376012 -0.112195,-0.706739 -0.208549,-0.929223 -0.09635,-0.222485 -0.226275,-0.336662 -0.37203,-0.362401 -0.145755,-0.02574 -0.307166,0.03726 -0.425388,0.169279 -0.118222,0.132016 -0.193018,0.332789 -0.192952,0.588804 6.6e-5,0.256015 0.07487,0.567049 0.13588,0.882016 0.06101,0.314968 0.108197,0.63348 0.01213,0.788443 -0.09607,0.154963 -0.334899,0.145883 -0.630437,0.07894 -0.295539,-0.06694 -0.646758,-0.191702 -1.00514,-0.342519 -0.358381,-0.150817 -0.724862,-0.328145 -1.041823,-0.501368 -0.316961,-0.173223 -0.584679,-0.342517 -0.937066,-0.551204 -0.352388,-0.208688 -0.789408,-0.456727 -1.230399,-0.750035 -0.44099,-0.293308 -0.885881,-0.631897 -1.303251,-0.984272 -0.417369,-0.352375 -0.807147,-0.718527 -1.084813,-1.161442 -0.277665,-0.442916 -0.443025,-0.962626 -0.569035,-1.41739 -0.126009,-0.454764 -0.212625,-0.844534 -0.344491,-1.246133 -0.131866,-0.401599 -0.309038,-0.814998 -0.543215,-1.08676 -0.234178,-0.271763 -0.525525,-0.401689 -0.785494,-0.411631 -0.25997,-0.0099 -0.48832,0.100297 -0.638013,0.344542 -0.149693,0.244246 -0.22056,0.622206 -0.120076,1.147893 0.100484,0.525687 0.372154,1.198957 0.787586,1.905686 0.415432,0.706729 0.974512,1.446919 1.545442,2.088674 0.570931,0.641755 1.153632,1.185083 1.90174,1.694916 0.748108,0.509834 1.661538,0.986233 2.439952,1.403048 0.778415,0.416814 1.421784,0.774016 2.256484,1.368583 0.834701,0.594567 1.860672,1.426376 2.499664,1.978161 0.638993,0.551784 0.890976,0.823451 1.257179,1.063558 0.366202,0.240106 0.84652,0.448772 1.439036,0.490026 0.592516,0.04125 1.297505,-0.08478 1.945101,-0.171875 0.647596,-0.0871 1.238428,-0.135373 1.900111,-0.178695 0.661684,-0.04332 1.393313,-0.08164 2.056736,-0.230805 0.66343,-0.149165 1.25778,-0.408947 1.95862,-0.714089 0.70085,-0.305142 1.50795,-0.65554 2.00792,-0.946861 0.49997,-0.291322 0.69289,-0.523612 0.76774,-0.743959 0.0748,-0.220346 0.0315,-0.429004 -0.14946,-0.655448 -0.181,-0.226443 -0.49991,-0.470547 -0.83668,-0.460833 -0.33676,0.0097 -0.6911,0.2735 -1.04746,0.596385 -0.35635,0.322885 -0.71463,0.704781 -1.1319,0.980361 -0.41727,0.275579 -0.89366,0.444876 -1.30902,0.563004 -0.41536,0.118128 -0.76971,0.185062 -1.104343,0.220513 -0.334636,0.03545 -0.649347,0.03938 -0.944902,0.0512 -0.295554,0.01182 -0.570919,0.0315 -0.708851,0.04136 -0.137932,0.0099 -0.137932,0.0098 -0.379931,-0.01381 z"
           style="fill:#c8beb7;fill-opacity:1;stroke:#c8beb7;stroke-width:0.264583px;stroke-linecap:butt;stroke-linejoin:miter;stroke-opacity:1" />
        <path
           inkscape:path-effect="#path-effect891"
           inkscape:original-d="m 89.700379,91.765506 c 0,0 -1.484136,0.664496 -2.226613,0.996336 -1.602828,1.248945 -3.205932,2.497619 -4.809307,3.746025 -1.829417,3.020154 -3.659109,6.040053 -5.489074,9.059663 -0.408298,2.807 -0.816871,5.61371 -1.225717,8.42017 1.208225,2.91357 2.416177,5.82688 3.623855,8.73991 1.581269,1.8655 3.162264,3.73073 4.742988,5.5957 3.482017,1.10162 6.96376,2.20299 10.445229,3.3041 2.558287,2.6e-4 5.11628,2.6e-4 7.67407,0 0.92399,-0.71028 1.84771,-1.42087 2.77116,-2.13169 5.15186,-3.78347 10.30341,-7.56722 15.45464,-11.35123 -9.89427,-3.3216 -19.7888,-6.64348 -29.683598,-9.96565 -1.225446,0.74638 -2.451164,1.49247 -3.677151,2.23827 0.0358,-2.55773 0.07133,-5.11575 0.106588,-7.67406 2.487232,-0.56819 4.974193,-1.13662 7.460881,-1.70533 -1.037469,-0.76761 -2.075209,-1.535481 -3.113217,-2.303618 -0.489692,0.590496 -0.979657,1.18073 -1.469894,1.770658 1.172695,0.28449 2.345116,0.56873 3.517266,0.85271 1.333784,0.13737 2.667291,0.27444 4.000529,0.41129 1.357912,-0.18931 2.715586,-0.37887 4.072916,-0.56871 0.91664,0.0317 1.83304,0.0626 2.7492,0.0939 0.48687,-0.45617 0.97352,-0.91264 1.45982,-1.369358 0.18097,-0.529045 0.36167,-1.058365 0.54208,-1.587952 -0.43184,-0.402729 -0.86396,-0.805734 -1.29628,-1.209006 -1.0869,-0.764663 -2.17408,-1.529594 -3.26154,-2.294792 -0.42819,-0.513674 -0.85674,-1.027617 -1.28555,-1.541837 -0.48104,-0.554826 -0.962402,-1.109943 -1.444025,-1.665317 -1.090094,-0.437634 -2.180462,-0.875545 -3.271099,-1.313728 -1.20549,-0.168311 -2.411253,-0.33689 -3.617289,-0.505749 -0.762299,-0.840784 -1.524873,-1.681837 -2.287715,-2.523157 -0.666885,-0.214154 -1.334045,-0.428587 -2.001475,-0.643285 -1.232033,-0.05678 -2.464335,-0.113793 -3.696914,-0.171095 1.003148,2.098066 2.006023,4.195863 3.008623,6.293393 2.129334,-1.167246 4.258395,-2.334759 6.387186,-3.50255 1.927574,0.04646 3.85488,0.09268 5.781914,0.138619 0.510684,-0.294122 1.021104,-0.588509 1.531224,-0.883175 0.80435,-0.286121 1.60841,-0.572514 2.41228,-0.859182 0.55816,-0.39001 1.11606,-0.780287 1.67375,-1.170832 -0.63829,-0.492021 -1.27688,-0.98431 -1.9157,-1.476865 -0.42847,0.703452 -0.85714,1.406639 -1.28616,2.109546 -0.91031,0.342705 -1.82091,0.68513 -2.73179,1.027286 -1.44041,2.29e-4 -2.881083,1.75e-4 -4.322037,-1.43e-4 0.573483,-0.455342 1.146701,-0.910962 1.719639,-1.366848 0.347568,-0.703236 0.694871,-1.406743 1.041894,-2.110517 -0.542534,-0.227324 -1.085348,-0.454917 -1.628427,-0.682788 -0.197364,0.576934 -0.395,1.15359 -0.592909,1.729978 -0.179791,0.810329 -0.359862,1.620391 -0.540197,2.430175 -0.794351,-0.440986 -1.588976,-0.882237 -2.383873,-1.323758 -0.618563,-0.34266 -1.237392,-0.685602 -1.8565,-1.028811 0.01031,-1.449875 0.02032,-2.900027 0.03007,-4.350448 -0.572834,0.285968 -1.145939,0.571658 -1.719314,0.857079 0.563356,1.16473 1.126439,2.329185 1.689252,3.493369 -2.062135,-1.094226 -4.124544,-2.18869 -6.187221,-3.28343 -0.810653,-0.698732 -1.621578,-1.397747 -2.432775,-2.097025 -0.189463,-0.576088 -0.379201,-1.152445 -0.569209,-1.729071 -0.225348,-0.978939 -0.450968,-1.958148 -0.676863,-2.937624 -0.660812,0.02186 -1.3219,0.04341 -1.983256,0.06464 0.197253,1.010138 0.394232,2.020006 0.590938,3.029608 0.620607,0.789623 1.240939,1.578981 1.860998,2.368069 0.63197,0.644152 1.263665,1.288025 1.895087,1.93163 0.854173,0.434531 1.708072,0.868798 2.561699,1.302783 0.787285,0.468202 1.573621,0.935799 2.361033,1.403806"
           sodipodi:nodetypes="cssssssssssssssssssssssssssssssssssssssssssssssssssssssssssssc"
           id="path889"
           d="m 89.700379,91.765506 c -0.742204,0.332112 -1.484283,0.664168 -2.656979,1.454574 -1.172696,0.790406 -2.775799,2.039081 -4.492238,4.173415 -1.716439,2.134333 -3.546135,5.154225 -4.665259,8.067605 -1.119124,2.91339 -1.527695,5.7201 -1.127922,8.58016 0.399773,2.86007 1.607727,5.77338 3.002255,8.16262 1.394529,2.38925 2.975523,4.25448 5.506931,5.73769 2.531409,1.48321 6.013153,2.58458 9.033006,3.13521 3.019854,0.55063 5.577847,0.55063 7.318617,0.19534 1.74077,-0.3553 2.66451,-1.06587 5.70215,-3.31303 3.03765,-2.24717 8.1892,-6.03091 5.81783,-9.58364 -2.37137,-3.55274 -12.2659,-6.87462 -17.826153,-8.16259 -5.560253,-1.28797 -6.785971,-0.54188 -7.381101,-1.44768 -0.59513,-0.9058 -0.5596,-3.46382 0.701748,-5.02722 1.261348,-1.5634 3.748307,-2.13184 4.472967,-2.79987 0.72466,-0.66802 -0.313079,-1.435893 -1.077093,-1.524816 -0.764014,-0.08892 -1.253986,0.501305 -0.912584,0.938556 0.341403,0.43724 1.513825,0.72148 2.766782,0.93212 1.252958,0.21065 2.586462,0.34774 3.932006,0.32148 1.345543,-0.0263 2.703218,-0.21585 3.840228,-0.29496 1.13701,-0.0791 2.0534,-0.0478 2.75478,-0.26039 0.70139,-0.21258 1.18802,-0.66906 1.52163,-1.161855 0.33361,-0.492791 0.5143,-1.022113 0.38877,-1.488223 -0.12554,-0.466111 -0.55765,-0.869127 -1.31726,-1.453103 -0.75961,-0.583975 -1.84679,-1.348906 -2.60466,-1.988294 -0.75787,-0.639388 -1.1864,-1.153348 -1.64132,-1.687872 -0.45492,-0.534525 -0.93628,-1.089647 -1.722096,-1.586234 -0.785816,-0.496588 -1.876184,-0.934498 -3.02426,-1.237789 -1.148076,-0.30329 -2.353838,-0.471873 -3.33803,-0.976571 -0.984192,-0.504697 -1.746765,-1.345751 -2.461594,-1.87358 -0.714829,-0.527828 -1.38199,-0.742257 -2.331742,-0.878033 -0.949753,-0.135776 -2.182054,-0.192807 -2.296835,0.827732 -0.11478,1.020539 0.888094,3.118336 2.454032,3.583288 1.565938,0.464952 3.694998,-0.702563 5.723272,-1.26319 2.028275,-0.560626 3.955581,-0.51442 5.174344,-0.638542 1.218759,-0.124122 1.729179,-0.418517 2.386449,-0.708907 0.65727,-0.29039 1.46134,-0.576774 2.14231,-0.915103 0.68096,-0.338329 1.23887,-0.728598 1.19868,-1.169755 -0.0402,-0.441157 -0.67877,-0.933457 -1.21258,-0.828078 -0.53381,0.105379 -0.96252,0.808542 -1.63208,1.331284 -0.66956,0.522741 -1.58015,0.865171 -2.755737,1.036391 -1.175583,0.17122 -2.616256,0.171173 -3.05011,-0.05667 -0.433855,-0.227844 0.139363,-0.683464 0.599573,-1.262956 0.46021,-0.579491 0.807509,-1.283 0.709946,-1.748535 -0.09756,-0.465534 -0.640376,-0.693132 -1.010791,-0.518587 -0.370414,0.174544 -0.568049,0.7512 -0.756895,1.444579 -0.188846,0.693379 -0.368913,1.503442 -0.856074,1.687832 -0.487161,0.18439 -1.281785,-0.256862 -1.988513,-0.648957 -0.706728,-0.392094 -1.32556,-0.735031 -1.630129,-1.631528 -0.304569,-0.896497 -0.294545,-2.346649 -0.576031,-2.929039 -0.281487,-0.582389 -0.85459,-0.296697 -0.859575,0.428569 -0.005,0.725266 0.558098,1.889721 -0.191484,1.924631 -0.749583,0.03491 -2.811986,-1.059565 -4.248666,-1.956266 -1.436679,-0.896701 -2.247608,-1.595712 -2.74803,-2.233358 -0.500422,-0.637645 -0.690158,-1.214003 -0.897854,-1.991789 -0.207695,-0.777787 -0.433317,-1.756996 -0.876575,-2.235988 -0.443257,-0.478992 -1.104346,-0.457445 -1.336498,0.05842 -0.232153,0.515868 -0.03517,1.525736 0.373569,2.425343 0.408743,0.899607 1.029076,1.688965 1.655109,2.40557 0.626033,0.716606 1.257726,1.360481 2.000552,1.899495 0.742826,0.539014 1.596727,0.973276 2.417179,1.424386 0.820451,0.451109 1.606814,0.91866 2.394153,1.38679"
           style="display:inline;fill:none;stroke:#000000;stroke-width:1.03062;stroke-linecap:butt;stroke-linejoin:miter;stroke-miterlimit:4;stroke-dasharray:none;stroke-opacity:1" />
      </g>
    </g>
  </g>
</svg>
